<svg id="SvgjsSvg1001" width="288" height="288" xmlns="http://www.w3.org/2000/svg" version="1.1" xmlns:xlink="http://www.w3.org/1999/xlink" xmlns:svgjs="http://svgjs.com/svgjs"><defs id="SvgjsDefs1002"></defs><g id="SvgjsG1008" transform="matrix(1,0,0,1,0,0)"><svg xmlns="http://www.w3.org/2000/svg" enable-background="new 0 0 512 512" viewBox="0 0 512 512" width="288" height="288"><path fill="#d7e9ff" d="M427.686,101.698l-57.747,387.604c-1.486,9.975-10.051,17.358-20.136,17.358H162.198
			c-10.085,0-18.65-7.383-20.136-17.358L84.314,101.698H427.686z" class="colord7e9ff svgShape"></path><path fill="#94c1ff" d="M447.248,101.698H64.752c-8.255,0-14.947-6.692-14.947-14.947V57.015
			c0-8.255,6.692-14.947,14.947-14.947h382.497c8.255,0,14.947,6.692,14.947,14.947v29.736
			C462.195,95.006,455.503,101.698,447.248,101.698z" class="color94c1ff svgShape"></path><path fill="#d7e9ff" d="M427.686,42.068H84.314V27.761c0-12.382,10.038-22.42,22.42-22.42h298.531
			c12.382,0,22.42,10.038,22.42,22.42V42.068z" class="colord7e9ff svgShape"></path><path fill="#94c1ff" d="M423.811,226.934L399.829,387.73c-1.559,10.451-10.533,18.186-21.099,18.186H133.271
			c-10.566,0-19.541-7.735-21.099-18.186L88.189,226.934c-1.923-12.892,8.064-24.48,21.099-24.48h293.423
			C415.747,202.455,425.734,214.042,423.811,226.934z" class="color94c1ff svgShape"></path><path fill="#ffffff" d="M311.694,304.152c0,30.773-24.921,55.694-55.694,55.694s-55.694-24.921-55.694-55.694
			c0-30.707,24.921-55.628,55.694-55.628S311.694,273.445,311.694,304.152z" class="colorfff svgShape"></path><path fill="#116fff" d="M447.25,36.735h-14.229v-8.974c0-15.302-12.453-27.754-27.754-27.754H106.733
				c-15.302,0-27.754,12.453-27.754,27.754v8.974H64.75c-11.182,0-20.281,9.099-20.281,20.281v29.734
				c0,11.182,9.099,20.281,20.281,20.281h14.963l14.159,95.033c-8.515,6.045-12.396,16.038-10.962,25.656l23.984,160.798
				c1.498,10.048,8.677,18.118,17.925,21.265l11.965,80.305c1.865,12.489,12.791,21.906,25.411,21.906h187.61
				c12.619,0,23.546-9.416,25.411-21.906l11.965-80.305c9.248-3.147,16.427-11.217,17.925-21.265l23.984-160.798
				c1.431-9.592-2.425-19.597-10.962-25.656l14.159-95.033h14.963c11.182,0,20.281-9.099,20.281-20.281V57.016
				C467.531,45.834,458.432,36.735,447.25,36.735z M89.645,27.761c0-9.422,7.666-17.088,17.088-17.088h298.534
				c9.422,0,17.088,7.666,17.088,17.088v8.974H89.645V27.761z M364.664,488.515c-1.089,7.302-7.479,12.812-14.859,12.812h-187.61
				c-7.38,0-13.77-5.51-14.859-12.812l-11.511-77.264h240.35L364.664,488.515z M418.537,226.147l-23.984,160.798
				c-1.156,7.776-7.958,13.64-15.822,13.64H133.269c-7.864,0-14.666-5.864-15.822-13.64L93.463,226.147
				c-1.448-9.71,6.097-18.359,15.828-18.359H402.71C412.448,207.788,419.984,216.446,418.537,226.147z M407.996,197.67
				c-1.727-0.349-3.494-0.548-5.287-0.548H109.29c-1.793,0-3.56,0.199-5.287,0.548l-13.505-90.64h331.002L407.996,197.67z
				 M456.864,86.749c0,5.302-4.312,9.614-9.614,9.614c-177.71,0-207.604,0-382.5,0c-5.302,0-9.614-4.312-9.614-9.614V57.016
				c0-5.302,4.312-9.614,9.614-9.614c177.71,0,207.604,0,382.5,0c5.302,0,9.614,4.312,9.614,9.614V86.749z" class="color116fff svgShape"></path><path fill="#116fff" d="M256,243.193c-33.65,0-61.03,27.343-61.03,60.957c0,33.65,27.379,61.03,61.03,61.03
				s61.03-27.379,61.03-61.03C317.03,270.536,289.65,243.193,256,243.193z M256,354.513c-27.77,0-50.363-22.593-50.363-50.363
				c0-27.728,22.593-50.29,50.363-50.29s50.363,22.562,50.363,50.29C306.363,331.92,283.77,354.513,256,354.513z" class="color116fff svgShape"></path></svg></g></svg>