<svg width="559" height="562" viewBox="0 0 559 562" fill="none" xmlns="http://www.w3.org/2000/svg">
<path fill-rule="evenodd" clip-rule="evenodd" d="M407.185 336.283C400.237 332.805 366.077 315.999 359.708 313.677C353.34 311.359 348.708 310.201 344.076 317.155C339.444 324.109 326.128 339.761 322.075 344.399C318.023 349.035 313.969 349.617 307.021 346.137C300.073 342.66 277.685 335.324 251.147 311.651C230.492 293.227 216.547 270.475 212.495 263.519C208.441 256.563 212.061 252.803 215.54 249.339C218.667 246.225 222.489 241.223 225.963 237.165C229.437 233.109 230.595 230.209 232.911 225.575C235.227 220.936 234.069 216.88 232.331 213.403C230.595 209.925 216.699 175.724 210.909 161.811C205.269 148.264 199.541 150.099 195.276 149.884C191.228 149.683 186.591 149.64 181.96 149.64C177.328 149.64 169.8 151.379 163.431 158.333C157.063 165.289 139.113 182.1 139.113 216.297C139.113 250.499 164.009 283.536 167.484 288.173C170.959 292.812 216.477 362.991 286.179 393.087C302.755 400.247 315.697 404.521 325.788 407.723C342.432 413.012 357.579 412.265 369.551 410.476C382.9 408.483 410.659 393.669 416.449 377.44C422.239 361.207 422.239 347.296 420.501 344.399C418.765 341.5 414.133 339.761 407.185 336.283ZM280.409 509.383H280.316C238.843 509.367 198.165 498.224 162.68 477.167L154.24 472.157L66.7653 495.104L90.1133 409.816L84.6187 401.071C61.4827 364.273 49.2627 321.743 49.2813 278.071C49.332 150.64 153.015 46.9652 280.501 46.9652C342.235 46.9865 400.264 71.0585 443.903 114.747C487.539 158.432 511.556 216.501 511.532 278.257C511.48 405.699 407.799 509.383 280.409 509.383ZM477.113 81.5506C424.613 28.9892 354.795 0.0305374 280.407 -0.000129312C127.136 -0.000129312 2.39202 124.736 2.33069 278.053C2.31069 327.064 15.1147 374.9 39.4493 417.072L0 561.167L147.411 522.499C188.027 544.652 233.756 556.329 280.296 556.344H280.409H280.411C433.665 556.344 558.42 431.596 558.483 278.276C558.511 203.975 529.613 134.111 477.113 81.5506" fill="white"/>
</svg>
